<?xml version="1.0" encoding="UTF-8" standalone="no"?>
<svg
   xmlns:dc="http://purl.org/dc/elements/1.1/"
   xmlns:cc="http://creativecommons.org/ns#"
   xmlns:rdf="http://www.w3.org/1999/02/22-rdf-syntax-ns#"
   xmlns:svg="http://www.w3.org/2000/svg"
   xmlns="http://www.w3.org/2000/svg"
   xmlns:sodipodi="http://sodipodi.sourceforge.net/DTD/sodipodi-0.dtd"
   xmlns:inkscape="http://www.inkscape.org/namespaces/inkscape"
   sodipodi:docname="btnErase.svg"
   inkscape:version="1.0 (4035a4fb49, 2020-05-01)"
   id="svg8"
   version="1.1"
   viewBox="0 0 10 9.9999996"
   height="10mm"
   width="10mm">
  <defs
     id="defs2">
    <inkscape:path-effect
       hide_knots="false"
       only_selected="false"
       apply_with_radius="true"
       apply_no_radius="true"
       use_knot_distance="true"
       flexible="false"
       chamfer_steps="1"
       radius="0.75"
       mode="F"
       method="auto"
       unit="px"
       satellites_param="F,0,0,1,0,0.1984375,0,1 @ F,0,0,1,0,0.1984375,0,1 @ F,0,0,1,0,0.1984375,0,1 @ F,0,0,1,0,0.1984375,0,1"
       lpeversion="1"
       is_visible="true"
       id="path-effect890"
       effect="fillet_chamfer" />
    <inkscape:path-effect
       hide_knots="false"
       only_selected="false"
       apply_with_radius="true"
       apply_no_radius="true"
       use_knot_distance="true"
       flexible="false"
       chamfer_steps="1"
       radius="0.5"
       mode="F"
       method="auto"
       unit="mm"
       satellites_param="F,0,0,1,0,0,0,1 @ F,0,0,1,0,0,0,1 @ F,0,0,1,0,0.5,0,1 @ F,0,0,1,0,0.5,0,1"
       lpeversion="1"
       is_visible="true"
       id="path-effect888"
       effect="fillet_chamfer" />
    <inkscape:path-effect
       hide_knots="false"
       only_selected="false"
       apply_with_radius="true"
       apply_no_radius="true"
       use_knot_distance="true"
       flexible="false"
       chamfer_steps="1"
       radius="0.75"
       mode="F"
       method="auto"
       unit="px"
       satellites_param="F,0,0,1,0,0.1984375,0,1 @ F,0,0,1,0,0.1984375,0,1 @ F,0,0,1,0,0.1984375,0,1 @ F,0,0,1,0,0.1984375,0,1"
       lpeversion="1"
       is_visible="true"
       id="path-effect886"
       effect="fillet_chamfer" />
    <inkscape:path-effect
       lpeversion="1"
       is_visible="true"
       id="path-effect848"
       effect="spiro" />
    <inkscape:path-effect
       effect="spiro"
       id="path-effect844"
       is_visible="true"
       lpeversion="1" />
    <inkscape:path-effect
       lpeversion="1"
       is_visible="true"
       id="path-effect840"
       effect="spiro" />
  </defs>
  <sodipodi:namedview
     inkscape:document-rotation="0"
     inkscape:window-maximized="1"
     inkscape:window-y="0"
     inkscape:window-x="0"
     inkscape:window-height="1024"
     inkscape:window-width="1920"
     fit-margin-bottom="0"
     fit-margin-right="0"
     fit-margin-left="0"
     fit-margin-top="0"
     showgrid="false"
     inkscape:current-layer="layer1"
     inkscape:document-units="mm"
     inkscape:cy="11.02969"
     inkscape:cx="7.921412"
     inkscape:zoom="11.2"
     inkscape:pageshadow="2"
     inkscape:pageopacity="0.0"
     borderopacity="1.0"
     bordercolor="#666666"
     pagecolor="#ffffff"
     id="base" />
  <metadata
     id="metadata5">
    <rdf:RDF>
      <cc:Work
         rdf:about="">
        <dc:format>image/svg+xml</dc:format>
        <dc:type
           rdf:resource="http://purl.org/dc/dcmitype/StillImage" />
        <dc:title></dc:title>
      </cc:Work>
    </rdf:RDF>
  </metadata>
  <g
     transform="translate(-35.962811,-131.89706)"
     id="layer1"
     inkscape:groupmode="layer"
     inkscape:label="Capa 1">
    <circle
       r="5"
       cy="136.89706"
       cx="40.962811"
       id="path815"
       style="fill:#ee3b48;fill-opacity:1;stroke:none;stroke-width:1.96261668;stroke-linecap:round;stroke-linejoin:round;stroke-miterlimit:11.89999962;stroke-dasharray:none;stroke-opacity:1" />
    <g
       transform="translate(-0.03793577,-0.14125886)"
       id="g919">
      <path
         id="rect832"
         style="fill:#ffffff;fill-opacity:1;stroke:none;stroke-width:0.377953;stroke-linecap:round;stroke-linejoin:round;stroke-miterlimit:4;stroke-dasharray:none;stroke-opacity:1"
         d="m 15.611328,7.9804688 c -0.408865,0.00745 -0.736396,0.3410675 -0.736328,0.75 v 1.4550782 h -2.957031 c -0.414214,0 -0.75,0.335786 -0.75,0.75 v 0.835937 c 0,0.414214 0.335786,0.75 0.75,0.75 h 14.246093 c 0.414214,0 0.75,-0.335786 0.75,-0.75 v -0.835937 c 0,-0.414214 -0.335786,-0.75 -0.75,-0.75 H 23.207031 V 8.7304688 c 0,-0.4142136 -0.335894,-0.7594514 -0.75,-0.75 z"
         transform="matrix(0.26458333,0,0,0.26458333,35.962811,131.89706)"
         sodipodi:nodetypes="cccsssssssscscc" />
      <path
         id="rect836"
         style="fill:#ffffff;fill-opacity:1;stroke:none;stroke-width:0.35225;stroke-linecap:round;stroke-linejoin:round;stroke-miterlimit:4;stroke-dasharray:none;stroke-opacity:1"
         d="m 12.558594,12.720703 v 16.271485 a 1.8897638,1.8897638 0 0 0 1.888672,1.890624 h 9.185546 a 1.8897638,1.8897638 0 0 0 1.890626,-1.890624 V 12.720703 Z m 2.871094,4.980469 a 0.56692916,0.56692916 0 0 1 0.560546,0.568359 v 7.056641 a 0.56692916,0.56692916 0 0 1 -0.560546,0.568359 0.56692916,0.56692916 0 0 1 -0.56836,-0.568359 v -7.056641 a 0.56692916,0.56692916 0 0 1 0.56836,-0.568359 z m 3.609374,0 a 0.56692916,0.56692916 0 0 1 0.56836,0.568359 v 7.056641 a 0.56692916,0.56692916 0 0 1 -0.56836,0.568359 0.56692916,0.56692916 0 0 1 -0.568359,-0.568359 v -7.056641 a 0.56692916,0.56692916 0 0 1 0.568359,-0.568359 z m 3.617188,0 a 0.56692916,0.56692916 0 0 1 0.568359,0.568359 v 7.056641 a 0.56692916,0.56692916 0 0 1 -0.568359,0.568359 0.56692916,0.56692916 0 0 1 -0.568359,-0.568359 v -7.056641 a 0.56692916,0.56692916 0 0 1 0.568359,-0.568359 z"
         transform="matrix(0.26458333,0,0,0.26458333,35.962811,131.89706)" />
    </g>
  </g>
</svg>
