<svg width="10mm" height="10mm" version="1.1" viewBox="0 0 10 10" xmlns="http://www.w3.org/2000/svg">
	<g transform="translate(-35.963 -131.9)">
		<circle cx="40.963" cy="136.9" r="5" fill="#ee3b48"/>
		<g transform="translate(-.037936 -.14126)" fill="#fff">
			<path transform="matrix(.26458 0 0 .26458 35.963 131.9)" d="m15.611 7.9805c-0.40886 0.00745-0.7364 0.34107-0.73633 0.75v1.4551h-2.957c-0.41421 0-0.75 0.33579-0.75 0.75v0.83594c0 0.41421 0.33579 0.75 0.75 0.75h14.246c0.41421 0 0.75-0.33579 0.75-0.75v-0.83594c0-0.41421-0.33579-0.75-0.75-0.75h-2.957v-1.4551c0-0.41421-0.33589-0.75945-0.75-0.75z"/>
			<path transform="matrix(.26458 0 0 .26458 35.963 131.9)" d="m12.559 12.721v16.271a1.8898 1.8898 0 0 0 1.8887 1.8906h9.1855a1.8898 1.8898 0 0 0 1.8906-1.8906v-16.271zm2.8711 4.9805a0.56693 0.56693 0 0 1 0.56055 0.56836v7.0566a0.56693 0.56693 0 0 1-0.56055 0.56836 0.56693 0.56693 0 0 1-0.56836-0.56836v-7.0566a0.56693 0.56693 0 0 1 0.56836-0.56836zm3.6094 0a0.56693 0.56693 0 0 1 0.56836 0.56836v7.0566a0.56693 0.56693 0 0 1-0.56836 0.56836 0.56693 0.56693 0 0 1-0.56836-0.56836v-7.0566a0.56693 0.56693 0 0 1 0.56836-0.56836zm3.6172 0a0.56693 0.56693 0 0 1 0.56836 0.56836v7.0566a0.56693 0.56693 0 0 1-0.56836 0.56836 0.56693 0.56693 0 0 1-0.56836-0.56836v-7.0566a0.56693 0.56693 0 0 1 0.56836-0.56836z"/>
		</g>
	</g>
</svg>
