<?xml version="1.0" encoding="UTF-8" standalone="no"?>
<svg
   xmlns:dc="http://purl.org/dc/elements/1.1/"
   xmlns:cc="http://creativecommons.org/ns#"
   xmlns:rdf="http://www.w3.org/1999/02/22-rdf-syntax-ns#"
   xmlns:svg="http://www.w3.org/2000/svg"
   xmlns="http://www.w3.org/2000/svg"
   xmlns:sodipodi="http://sodipodi.sourceforge.net/DTD/sodipodi-0.dtd"
   xmlns:inkscape="http://www.inkscape.org/namespaces/inkscape"
   width="10mm"
   height="10mm"
   viewBox="0 0 10 9.9999996"
   version="1.1"
   id="svg8"
   inkscape:version="1.0 (4035a4fb49, 2020-05-01)"
   sodipodi:docname="btnEraseMD.svg">
  <defs
     id="defs2">
    <inkscape:path-effect
       effect="fillet_chamfer"
       id="path-effect890"
       is_visible="true"
       lpeversion="1"
       satellites_param="F,0,0,1,0,0.1984375,0,1 @ F,0,0,1,0,0.1984375,0,1 @ F,0,0,1,0,0.1984375,0,1 @ F,0,0,1,0,0.1984375,0,1"
       unit="px"
       method="auto"
       mode="F"
       radius="0.75"
       chamfer_steps="1"
       flexible="false"
       use_knot_distance="true"
       apply_no_radius="true"
       apply_with_radius="true"
       only_selected="false"
       hide_knots="false" />
    <inkscape:path-effect
       effect="fillet_chamfer"
       id="path-effect888"
       is_visible="true"
       lpeversion="1"
       satellites_param="F,0,0,1,0,0,0,1 @ F,0,0,1,0,0,0,1 @ F,0,0,1,0,0.5,0,1 @ F,0,0,1,0,0.5,0,1"
       unit="mm"
       method="auto"
       mode="F"
       radius="0.5"
       chamfer_steps="1"
       flexible="false"
       use_knot_distance="true"
       apply_no_radius="true"
       apply_with_radius="true"
       only_selected="false"
       hide_knots="false" />
    <inkscape:path-effect
       effect="fillet_chamfer"
       id="path-effect886"
       is_visible="true"
       lpeversion="1"
       satellites_param="F,0,0,1,0,0.1984375,0,1 @ F,0,0,1,0,0.1984375,0,1 @ F,0,0,1,0,0.1984375,0,1 @ F,0,0,1,0,0.1984375,0,1"
       unit="px"
       method="auto"
       mode="F"
       radius="0.75"
       chamfer_steps="1"
       flexible="false"
       use_knot_distance="true"
       apply_no_radius="true"
       apply_with_radius="true"
       only_selected="false"
       hide_knots="false" />
    <inkscape:path-effect
       effect="spiro"
       id="path-effect848"
       is_visible="true"
       lpeversion="1" />
    <inkscape:path-effect
       lpeversion="1"
       is_visible="true"
       id="path-effect844"
       effect="spiro" />
    <inkscape:path-effect
       effect="spiro"
       id="path-effect840"
       is_visible="true"
       lpeversion="1" />
  </defs>
  <sodipodi:namedview
     id="base"
     pagecolor="#ffffff"
     bordercolor="#666666"
     borderopacity="1.0"
     inkscape:pageopacity="0.0"
     inkscape:pageshadow="2"
     inkscape:zoom="11.2"
     inkscape:cx="13.279402"
     inkscape:cy="23.249002"
     inkscape:document-units="mm"
     inkscape:current-layer="layer1"
     showgrid="false"
     fit-margin-top="0"
     fit-margin-left="0"
     fit-margin-right="0"
     fit-margin-bottom="0"
     inkscape:window-width="1920"
     inkscape:window-height="1024"
     inkscape:window-x="0"
     inkscape:window-y="0"
     inkscape:window-maximized="1"
     inkscape:document-rotation="0" />
  <metadata
     id="metadata5">
    <rdf:RDF>
      <cc:Work
         rdf:about="">
        <dc:format>image/svg+xml</dc:format>
        <dc:type
           rdf:resource="http://purl.org/dc/dcmitype/StillImage" />
        <dc:title></dc:title>
      </cc:Work>
    </rdf:RDF>
  </metadata>
  <g
     inkscape:label="Capa 1"
     inkscape:groupmode="layer"
     id="layer1"
     transform="translate(-35.962811,-131.89706)">
    <circle
       style="fill:#ee3b48;fill-opacity:1;stroke:none;stroke-width:1.96261668;stroke-linecap:round;stroke-linejoin:round;stroke-miterlimit:11.89999962;stroke-dasharray:none;stroke-opacity:1"
       id="path815"
       cx="40.962811"
       cy="136.89706"
       r="5" />
    <path
       transform="matrix(0.26458333,0,0,0.26458333,35.962811,131.89706)"
       d="M 14.732422 9.6523438 L 12.416016 10.496094 L 12.416016 12.1875 L 12.886719 29.755859 L 22.148438 37.513672 A 18.897638 18.897638 0 0 0 37.791016 19.273438 L 26.486328 9.8046875 L 14.732422 9.6523438 z "
       style="fill:#bb3b48;fill-opacity:1;stroke-width:1.13386;stroke-linecap:round;stroke-linejoin:round"
       id="rect840" />
    <g
       id="g919"
       transform="translate(-0.03793577,-0.14125886)">
      <path
         sodipodi:nodetypes="cccsssssssscscc"
         transform="matrix(0.26458333,0,0,0.26458333,35.962811,131.89706)"
         d="m 15.611328,7.9804688 c -0.408865,0.00745 -0.736396,0.3410675 -0.736328,0.75 v 1.4550782 h -2.957031 c -0.414214,0 -0.75,0.335786 -0.75,0.75 v 0.835937 c 0,0.414214 0.335786,0.75 0.75,0.75 h 14.246093 c 0.414214,0 0.75,-0.335786 0.75,-0.75 v -0.835937 c 0,-0.414214 -0.335786,-0.75 -0.75,-0.75 H 23.207031 V 8.7304688 c 0,-0.4142136 -0.335894,-0.7594514 -0.75,-0.75 z"
         style="fill:#ffffff;fill-opacity:1;stroke:none;stroke-width:0.377953;stroke-linecap:round;stroke-linejoin:round;stroke-miterlimit:4;stroke-dasharray:none;stroke-opacity:1"
         id="rect832" />
      <path
         transform="matrix(0.26458333,0,0,0.26458333,35.962811,131.89706)"
         d="m 12.558594,12.720703 v 16.271485 a 1.8897638,1.8897638 0 0 0 1.888672,1.890624 h 9.185546 a 1.8897638,1.8897638 0 0 0 1.890626,-1.890624 V 12.720703 Z m 2.871094,4.980469 a 0.56692916,0.56692916 0 0 1 0.560546,0.568359 v 7.056641 a 0.56692916,0.56692916 0 0 1 -0.560546,0.568359 0.56692916,0.56692916 0 0 1 -0.56836,-0.568359 v -7.056641 a 0.56692916,0.56692916 0 0 1 0.56836,-0.568359 z m 3.609374,0 a 0.56692916,0.56692916 0 0 1 0.56836,0.568359 v 7.056641 a 0.56692916,0.56692916 0 0 1 -0.56836,0.568359 0.56692916,0.56692916 0 0 1 -0.568359,-0.568359 v -7.056641 a 0.56692916,0.56692916 0 0 1 0.568359,-0.568359 z m 3.617188,0 a 0.56692916,0.56692916 0 0 1 0.568359,0.568359 v 7.056641 a 0.56692916,0.56692916 0 0 1 -0.568359,0.568359 0.56692916,0.56692916 0 0 1 -0.568359,-0.568359 v -7.056641 a 0.56692916,0.56692916 0 0 1 0.568359,-0.568359 z"
         style="fill:#ffffff;fill-opacity:1;stroke:none;stroke-width:0.35225;stroke-linecap:round;stroke-linejoin:round;stroke-miterlimit:4;stroke-dasharray:none;stroke-opacity:1"
         id="rect836" />
    </g>
  </g>
</svg>
