<svg width="10mm" height="10mm" version="1.1" viewBox="0 0 10 10" xmlns="http://www.w3.org/2000/svg"><g transform="translate(-35.963 -131.9)"><circle cx="40.963" cy="136.9" r="5" fill="#cdeeff"/><path d="m43.136 138.76-0.70489 7e-3 -0.1734 0.68327-0.65376-0.26365-0.42167 0.5649-0.50311-0.49376-0.60575 0.36053-0.27586-0.64871-0.69761 0.10128-0.0066-0.70489-0.68326-0.1734 0.26364-0.65377-0.5649-0.42167 0.49376-0.50311-0.36053-0.60575 0.6487-0.27586-0.10127-0.69761 0.70489-7e-3 0.1734-0.68327 0.65376 0.26365 0.42167-0.5649 0.50311 0.49376 0.60575-0.36053 0.27586 0.6487 0.69761-0.10127 0.0066 0.70489 0.68326 0.1734-0.26364 0.65377 0.5649 0.42167-0.49376 0.50311 0.36053 0.60575-0.6487 0.27586z" fill="#d3cf32"/><circle cx="40.963" cy="136.9" r="1.9275" fill="#d79e28"/></g></svg>
