<svg width="10mm" height="10mm" version="1.1" viewBox="0 0 10 10" xmlns="http://www.w3.org/2000/svg">
 <circle cx="5" cy="5" r="5" fill="#26a17a"/>
 <path d="m6.5419 5.8432v1.9125" fill="#2cffff" stroke="#f9fcfb" stroke-linecap="round" stroke-linejoin="round" stroke-width=".37042"/>
 <path d="m7.4981 6.7996h-1.9125" fill="#2cffff" stroke="#f9fcfb" stroke-linecap="round" stroke-linejoin="round" stroke-width=".37042"/>
 <path transform="scale(.26458)" d="m18.791 7.4414a9.4323 9.4323 0 0 0-9.3359 9.4316 9.4323 9.4323 0 0 0 9.4043 9.4336 5.8972 5.8972 0 0 1-0.03125-0.60742 5.8972 5.8972 0 0 1 5.8965-5.8965 5.8972 5.8972 0 0 1 2.8535 0.73633 9.4323 9.4323 0 0 0 0.74219-3.666 9.4323 9.4323 0 0 0-9.4336-9.4316 9.4323 9.4323 0 0 0-0.095703 0z" fill="#fff" fill-opacity=".97112"/>
 <g stroke="#26a17a" stroke-linecap="round" stroke-width=".26988">
  <circle cx="3.9687" cy="4.1235" r=".54976" fill="none"/>
  <circle cx="6.0259" cy="4.1235" r=".54976" fill="none"/>
  <path d="m4.5617 4.1005h0.87127" fill="#f287ff"/>
  <path d="m3.3284 4.1768h-0.66865" fill="none"/>
  <path d="m7.3349 4.1768h-0.66865" fill="none"/>
 </g>
</svg>
