<?xml version="1.0" encoding="UTF-8" standalone="no"?>
<!-- Created with Inkscape (http://www.inkscape.org/) -->

<svg
   xmlns:dc="http://purl.org/dc/elements/1.1/"
   xmlns:cc="http://creativecommons.org/ns#"
   xmlns:rdf="http://www.w3.org/1999/02/22-rdf-syntax-ns#"
   xmlns:svg="http://www.w3.org/2000/svg"
   xmlns="http://www.w3.org/2000/svg"
   xmlns:sodipodi="http://sodipodi.sourceforge.net/DTD/sodipodi-0.dtd"
   xmlns:inkscape="http://www.inkscape.org/namespaces/inkscape"
   width="10mm"
   height="10mm"
   viewBox="0 0 10 9.9999996"
   version="1.1"
   id="svg8"
   inkscape:version="0.92.4 5da689c313, 2019-01-14"
   sodipodi:docname="btnResults.svg.2020_05_05_16_30_35.0.svg">
  <defs
     id="defs2">
    <inkscape:path-effect
       effect="spiro"
       id="path-effect1117"
       is_visible="true" />
  </defs>
  <sodipodi:namedview
     id="base"
     pagecolor="#ffffff"
     bordercolor="#666666"
     borderopacity="1.0"
     inkscape:pageopacity="0.0"
     inkscape:pageshadow="2"
     inkscape:zoom="8"
     inkscape:cx="29.77063"
     inkscape:cy="22.039438"
     inkscape:document-units="mm"
     inkscape:current-layer="layer1"
     showgrid="false"
     fit-margin-top="0"
     fit-margin-left="0"
     fit-margin-right="0"
     fit-margin-bottom="0"
     inkscape:window-width="1920"
     inkscape:window-height="1024"
     inkscape:window-x="0"
     inkscape:window-y="0"
     inkscape:window-maximized="1" />
  <metadata
     id="metadata5">
    <rdf:RDF>
      <cc:Work
         rdf:about="">
        <dc:format>image/svg+xml</dc:format>
        <dc:type
           rdf:resource="http://purl.org/dc/dcmitype/StillImage" />
        <dc:title />
      </cc:Work>
    </rdf:RDF>
  </metadata>
  <g
     inkscape:label="Capa 1"
     inkscape:groupmode="layer"
     id="layer1"
     transform="translate(-35.962811,-131.89706)">
    <circle
       style="fill:#ee7d48;fill-opacity:1;stroke:none;stroke-width:1.96261668;stroke-linecap:round;stroke-linejoin:round;stroke-miterlimit:11.89999962;stroke-dasharray:none;stroke-opacity:1"
       id="path815"
       cx="40.962811"
       cy="136.89706"
       r="5" />
    <path
       style="color:#000000;font-style:normal;font-variant:normal;font-weight:normal;font-stretch:normal;font-size:medium;line-height:normal;font-family:sans-serif;font-variant-ligatures:normal;font-variant-position:normal;font-variant-caps:normal;font-variant-numeric:normal;font-variant-alternates:normal;font-feature-settings:normal;text-indent:0;text-align:start;text-decoration:none;text-decoration-line:none;text-decoration-style:solid;text-decoration-color:#000000;letter-spacing:normal;word-spacing:normal;text-transform:none;writing-mode:lr-tb;direction:ltr;text-orientation:mixed;dominant-baseline:auto;baseline-shift:baseline;text-anchor:start;white-space:normal;shape-padding:0;clip-rule:nonzero;display:inline;overflow:visible;visibility:visible;opacity:1;isolation:auto;mix-blend-mode:normal;color-interpolation:sRGB;color-interpolation-filters:linearRGB;solid-color:#000000;solid-opacity:1;vector-effect:none;fill:#fffff7;fill-opacity:1;fill-rule:nonzero;stroke:none;stroke-width:0.5;stroke-linecap:butt;stroke-linejoin:round;stroke-miterlimit:4;stroke-dasharray:none;stroke-dashoffset:0;stroke-opacity:1;color-rendering:auto;image-rendering:auto;shape-rendering:auto;text-rendering:auto;enable-background:accumulate"
       d="m 40.310471,133.44671 c -1.040058,0.20763 -1.940359,0.89174 -2.413212,1.86622 l -0.280258,-0.1233 c -0.141454,-0.063 -0.297779,0.0517 -0.280026,0.206 l 0.09061,0.81394 0.09013,0.81139 c 0.0083,0.0747 0.05758,0.13844 0.124331,0.16356 0.06681,0.0249 0.137677,0.0154 0.192075,-0.0245 l 0.659185,-0.48248 0.658702,-0.48502 c 0.125193,-0.0911 0.104108,-0.28374 -0.03799,-0.34523 l -0.30146,-0.13239 c 0.419435,-0.83169 1.277972,-1.35434 2.216863,-1.33474 0.982995,0.0205 1.852164,0.62951 2.209348,1.54545 a 0.250025,0.250025 0 0 0 0.325491,0.14253 l 0.465694,-0.1814 a 0.250025,0.250025 0 0 0 0.143044,-0.3256 c -0.503175,-1.2903 -1.739231,-2.15013 -3.123599,-2.17905 -0.25138,-0.005 -0.498871,0.0169 -0.738899,0.0648 z m 3.8724,3.15043 c -0.03286,0.004 -0.06426,0.0163 -0.09143,0.0364 l -0.659088,0.48299 -0.658702,0.48502 c -0.125192,0.0911 -0.104109,0.28374 0.03799,0.34522 l 0.30146,0.13239 c -0.419435,0.8317 -1.277972,1.35435 -2.216864,1.33475 -0.982993,-0.0205 -1.852164,-0.62951 -2.209347,-1.54545 a 0.250025,0.250025 0 0 0 -0.325589,-0.14305 l -0.465694,0.18141 a 0.250025,0.250025 0 0 0 -0.143043,0.32559 c 0.503174,1.29031 1.739328,2.15065 3.123695,2.17957 1.340669,0.028 2.570648,-0.73169 3.152624,-1.93103 l 0.279654,0.12288 c 0.141453,0.063 0.297778,-0.0517 0.280124,-0.20549 l -0.09071,-0.81444 -0.08962,-0.81149 c -0.0083,-0.0747 -0.05808,-0.13835 -0.124834,-0.16347 -0.0334,-0.0125 -0.06779,-0.0161 -0.100634,-0.0119 z"
       id="path1441"
       inkscape:connector-curvature="0" />
  </g>
</svg>
