<svg width="10mm" height="10mm" version="1.1" viewBox="0 0 10 10" xmlns="http://www.w3.org/2000/svg"><g transform="translate(-35.963 -131.9)"><circle cx="40.963" cy="136.9" r="5" fill="#ee7d48"/><path d="m40.31 133.45c-1.0401 0.20763-1.9404 0.89174-2.4132 1.8662l-0.28026-0.1233c-0.14145-0.063-0.29778 0.0517-0.28003 0.206l0.09061 0.81394 0.09013 0.81139c0.0083 0.0747 0.05758 0.13844 0.12433 0.16356 0.06681 0.0249 0.13768 0.0154 0.19208-0.0245l0.65918-0.48248 0.6587-0.48502c0.12519-0.0911 0.10411-0.28374-0.03799-0.34523l-0.30146-0.13239c0.41944-0.83169 1.278-1.3543 2.2169-1.3347 0.983 0.0205 1.8522 0.62951 2.2093 1.5454a0.25002 0.25002 0 0 0 0.32549 0.14253l0.46569-0.1814a0.25002 0.25002 0 0 0 0.14304-0.3256c-0.50318-1.2903-1.7392-2.1501-3.1236-2.179-0.25138-5e-3 -0.49887 0.0169-0.7389 0.0648zm3.8724 3.1504c-0.03286 4e-3 -0.06426 0.0163-0.09143 0.0364l-0.65909 0.48299-0.6587 0.48502c-0.12519 0.0911-0.10411 0.28374 0.03799 0.34522l0.30146 0.13239c-0.41944 0.8317-1.278 1.3544-2.2169 1.3348-0.98299-0.0205-1.8522-0.62951-2.2093-1.5454a0.25002 0.25002 0 0 0-0.32559-0.14305l-0.46569 0.18141a0.25002 0.25002 0 0 0-0.14304 0.32559c0.50317 1.2903 1.7393 2.1506 3.1237 2.1796 1.3407 0.028 2.5706-0.73169 3.1526-1.931l0.27965 0.12288c0.14145 0.063 0.29778-0.0517 0.28012-0.20549l-0.09071-0.81444-0.08962-0.81149c-0.0083-0.0747-0.05808-0.13835-0.12483-0.16347-0.0334-0.0125-0.06779-0.0161-0.10063-0.0119z" color="#000000" color-rendering="auto" dominant-baseline="auto" fill="#fffff7" image-rendering="auto" shape-rendering="auto" solid-color="#000000" style="font-feature-settings:normal;font-variant-alternates:normal;font-variant-caps:normal;font-variant-ligatures:normal;font-variant-numeric:normal;font-variant-position:normal;isolation:auto;mix-blend-mode:normal;shape-padding:0;text-decoration-color:#000000;text-decoration-line:none;text-decoration-style:solid;text-indent:0;text-orientation:mixed;text-transform:none;white-space:normal"/></g></svg>
