<svg width="5.0043mm" height="5.0043mm" version="1.1" viewBox="0 0 5.0043 5.0043" xmlns="http://www.w3.org/2000/svg">
 <g transform="matrix(.47397 0 0 .47397 -16.913 -62.385)" fill="none" stroke="#000" stroke-width=".55822">
  <circle cx="40.963" cy="136.9" r="5" fill="none" stroke="#000" stroke-width=".55822"/>
 </g>
 <g transform="matrix(1.7763 0 0 1.7763 .26798 .43781)" stroke-linejoin="round" stroke-width=".5" aria-label="?">
  <path d="m1.0981 1.6852h0.20981v0.26252h-0.20981zm0.20361-0.15193h-0.19741v-0.15917c0-0.069592 0.00965-0.12678 0.028939-0.17157 0.019293-0.044787 0.059945-0.096808 0.12196-0.15607l0.093019-0.091986c0.039275-0.036519 0.067525-0.07097 0.084751-0.10335 0.017915-0.032384 0.026872-0.065458 0.026872-0.09922 0-0.061324-0.022738-0.11093-0.068214-0.14883-0.044787-0.037897-0.10439-0.056845-0.1788-0.056845-0.054433 0-0.11266 0.012058-0.17467 0.036174-0.061324 0.024116-0.1254 0.059257-0.19224 0.10542v-0.19431c0.064769-0.039275 0.13023-0.068558 0.19637-0.087851 0.066836-0.019293 0.13574-0.028939 0.20671-0.028939 0.12678 0 0.22841 0.033418 0.3049 0.10025 0.077171 0.066836 0.11576 0.15503 0.11576 0.26459 0 0.052366-0.012403 0.10232-0.037208 0.14986-0.024805 0.046854-0.068214 0.099909-0.13023 0.15917l-0.090952 0.088885c-0.032385 0.032385-0.055467 0.057879-0.069247 0.076482-0.013091 0.017915-0.022393 0.035485-0.027906 0.052711-0.00413 0.014469-0.00723 0.03204-0.0093 0.052711s-0.0031 0.048921-0.0031 0.084751z" color="#000000" color-rendering="auto" dominant-baseline="auto" image-rendering="auto" shape-rendering="auto" solid-color="#000000" stop-color="#000000" style="font-feature-settings:normal;font-variant-alternates:normal;font-variant-caps:normal;font-variant-east-asian:normal;font-variant-ligatures:normal;font-variant-numeric:normal;font-variant-position:normal;font-variation-settings:normal;inline-size:0;isolation:auto;mix-blend-mode:normal;shape-margin:0;shape-padding:0;text-decoration-color:#000000;text-decoration-line:none;text-decoration-style:solid;text-indent:0;text-orientation:mixed;text-transform:none;white-space:normal"/>
 </g>
</svg>
