<svg width="27.991mm" height="10.164mm" version="1.1" viewBox="0 0 27.991 10.164" xmlns="http://www.w3.org/2000/svg">
 <g transform="translate(-35.963 -131.73)">
  <rect x="35.963" y="131.73" width="27.991" height="10.164" ry="5.0818" fill="#ee7d48"/>
  <g transform="translate(-.58454)">
   <text x="53.994747" y="138.07874" fill="#26b57a" font-family="Arial" font-size="1.4817px" stroke-linecap="round" stroke-linejoin="round" stroke-miterlimit="11.9" stroke-width="1.9844" text-align="center" text-anchor="middle" style="line-height:1.25" xml:space="preserve"><tspan x="53.994747" y="138.07874" fill="#ffffff" font-family="Arial" font-size="3.5278px" font-weight="bold" stroke-width="1.9844">RESTART</tspan></text>
   <path d="m40.372 134.17c-0.79661 0.15902-1.4862 0.68298-1.8483 1.4293l-0.21465-0.0944c-0.10834-0.0483-0.22807 0.0396-0.21448 0.15777l0.0694 0.6234 0.06903 0.62144c0.0064 0.0572 0.0441 0.10604 0.09522 0.12527 0.05117 0.0191 0.10545 0.0118 0.14712-0.0188l0.50487-0.36953 0.5045-0.37148c0.09588-0.0698 0.07974-0.21732-0.0291-0.26441l-0.23089-0.1014c0.32125-0.63699 0.97882-1.0373 1.6979-1.0222 0.75288 0.0157 1.4186 0.48215 1.6921 1.1836a0.19149 0.19149 0 0 0 0.24929 0.10916l0.35667-0.13893a0.19149 0.19149 0 0 0 0.10956-0.24938c-0.38539-0.98824-1.3321-1.6468-2.3924-1.6689-0.19253-4e-3 -0.38208 0.0129-0.56592 0.0496zm2.9659 2.4129c-0.02517 3e-3 -0.04922 0.0125-0.07003 0.0279l-0.5048 0.36992-0.5045 0.37148c-0.09588 0.0698-0.07974 0.21732 0.0291 0.26441l0.23089 0.10139c-0.32125 0.637-0.97882 1.0373-1.6979 1.0223-0.75287-0.0157-1.4186-0.48215-1.6921-1.1836a0.19149 0.19149 0 0 0-0.24937-0.10956l-0.35667 0.13894a0.19149 0.19149 0 0 0-0.10956 0.24937c0.38538 0.98825 1.3321 1.6472 2.3924 1.6694 1.0268 0.0215 1.9688-0.5604 2.4146-1.479l0.21418 0.0941c0.10834 0.0482 0.22807-0.0396 0.21454-0.15738l-0.06947-0.62378-0.06864-0.62153c-0.0064-0.0572-0.04448-0.10596-0.09561-0.1252-0.02558-0.01-0.05192-0.0123-0.07707-9e-3z" color="#000000" color-rendering="auto" dominant-baseline="auto" fill="#fffff7" image-rendering="auto" shape-rendering="auto" solid-color="#000000" stroke-width=".7659" style="font-feature-settings:normal;font-variant-alternates:normal;font-variant-caps:normal;font-variant-ligatures:normal;font-variant-numeric:normal;font-variant-position:normal;isolation:auto;mix-blend-mode:normal;shape-padding:0;text-decoration-color:#000000;text-decoration-line:none;text-decoration-style:solid;text-indent:0;text-orientation:mixed;text-transform:none;white-space:normal"/>
  </g>
 </g>
</svg>
