<svg width="529.17mm" height="547.86mm" version="1.1" viewBox="0 0 529.17 547.86" xmlns="http://www.w3.org/2000/svg">
	<g>
		<rect transform="translate(49.137 75.478)" x="-49.137" y="215.36" width="247.68" height="257.02" fill="#b4b4b4"/>
		<rect transform="translate(49.137 75.478)" x="-49.137" y="-75.478" width="247.68" height="257.02" fill="#151515"/>
		<rect transform="translate(49.137 75.478)" x="232.35" y="215.36" width="247.68" height="257.02" fill="#888785"/>
		<rect transform="translate(49.137 75.478)" x="232.35" y="-75.478" width="247.68" height="257.02" fill="#414444"/>
	</g>
	<g transform="translate(49.137 75.478)">
		<path d="m96.313 310.04c-0.7049 0.72769-1.1677 1.1187-1.9608 1.7482l-5.268 4.1814-7.1343 0.0945c-0.66481-0.73129-1.1351-1.618 0.11812-2.5277-3.4023 0.22641-6.0726-0.45515-3.0947-2.4568-0.8707-1.1609-2.9019-1.0014-4.1105-0.23623-0.44676-3.6877 5.2857-3.6308 7.9375-3.5672l5.4098-3.1892c-4.7778 0.34127 0.04383-4.3002 1.9371-5.0554l2.197-4.0632c-3.4907 0.748-7.474 1.8317-10.087 4.4176h-4.3704c-0.26409-1.2324-1.4876-1.1953-2.6222-0.7087 0.76099-2.6635 3.3177-4.1148 5.457-5.7878-2.7028 0.57916-5.6208 1.442-8.4336 1.6773-1.0813-1.3216 1.4217-2.2935 2.5986-2.8585-1.1769-0.18154-1.4282-0.16773-2.5041 0.0473 1.1287-2.0962 3.5046-3.1545 6.0949-2.6458 0.92688-0.84262 1.7226-1.5407 3.1183-1.3702 2.9229-4.3843 9.4227-3.0295 13.418-1.4646 4.6703-1.7548 8.8402-3.1566 11.812-6.7091 14.232-17.015 12.019-36.008 6.4728-45.971-18.07-32.461-44.975-41.045-80.784-41.045-15.026-1.9519-29.63-7.6947-38.487-20.981-6.3884-2.1518-11.637-13.017-7.1562-16.469 17.487-13.475 37.123-26.949 55.651-36.599 11.544-2.5296 35.722-6.217 43.089-14.883-0.29998-15.251 9.0605-28.41 21.671-26.595 5.4179 0.77976 10.12 3.8897 10.424 10.891 0.25118 5.7849-4.3366 13.312-5.9802 15.635-1.5411 2.178 9.229 6.9226 11.76 7.1495 17.537 11.48 47.977 6.4718 67.014 1.0932 10.933-3.0891 21.913-10.668 32.789-11.15 41.097-1.8212 93.914 7.9896 124.29 45.363 9.7549 12.003 15.361 28.927 21.383 46.719 3.4443 10.177 4.7435 20.351 8.3074 30.193 5.1354 14.182 12.968 27.966 22.843 33.32 4.6479 2.5202 10.219 4.6173 16.288 7.7701 6.8238 3.5451 20.846 10.495 29.701 17.935 8.7307 7.3362 14.32 9.5098 22.466 25.801 3.0912 6.1823 1.6072 24.347-6.2473 31.73-16.878 15.865-39.981 23.841-64.122 24.438-39.267 0.96987-70.07-9.6151-108.61-1.8987-3.3138 0.66346-13.916 2.7718-18.196 2.0787-2.4798-0.40156 12.668-5.4437 19.371-6.8508 17.743-3.7246 36.117-3.5269 54.24-4.016 12.629-0.3408 28.444 0.75594 37.892 0.75594 11.723 0 41.752 1.014 58.681-9.2604 8.3049-5.0405 16.307-12.439 17.319-23.441 0.9401-10.225-3.86-18.309-9.8537-24.94-10.438-11.549-30.473-17.216-41.483-21.45-11.614-4.3837-22.444-7.0231-35.246-7.9375-13.372 8.5789-34.966 16.629-60.476 13.229 3.5565 23.906-38.102 18.323-55.657 22.395-2.625 0.70377-4.4255-0.66831-7.1815-0.37798-4.3262 0.45574-6.8428 2.8577-10.205 4.8192-9.1234 2.4156-5.8277-2.6165-1.8899-7.087-1.7309-0.48815-3.5581-1.1877-5.1263-2.1025-3.485 1.9938-7.1657 3.4217-10.654 5.0318v-19.891c0.753 0.19214 1.6937 0.64779 2.2206 0.85045 0.69226 0.23352 1.7912 0.57957 2.1734 0.66146 1.956-0.54151 3.9659-0.61421 6.0949-0.61421 2.1343 0.64875 8.2674 1.8386 12.473 2.2206 9.4735 0.86043 19.094 1.2866 28.537 0.14175 6.2576-0.75861 9.4669-0.99755 9.1187-4.3467-1.4463-13.909-33.049-8.8447-40.774-9.8746-16.179-1.5479-32.25-6.9178-47.227-12.678-7.4724 2.6956-15.372 6.7043-22.578 10.161-16.558 7.943-31.178 14.94-47.037 27.18-0.32389 2.6883-1.9116 6.5592-4.6746 9.3364-1.8985-2.2713-4.4056-2.4813-5.0447 0.50113-1.4424 0.62528-2.6622 1.1588-3.8086 2.3052-0.73365 0.73365-1.8902 1.9267-2.5047 3.056-0.641 1.1781-0.55683 2.535-2.2394 3.7928-5.3669 4.0121-8.1226 0.76254-5.9047-2.8592 0.61325-1.0014 2.9895-4.0992 1.4446-3.2129-2.692 1.5444-2.844 1.0955-5.0729 0.45141z" fill="#fff"/>
	</g>
</svg>
