<?xml version="1.0" encoding="UTF-8" standalone="no"?>
<svg
   width="529.17mm"
   height="547.86mm"
   version="1.1"
   viewBox="0 0 529.17 547.86"
   id="svg16"
   sodipodi:docname="TRat2.svg"
   inkscape:version="1.1 (c4e8f9ed74, 2021-05-24)"
   inkscape:export-filename="/run/media/angel/Datos/MEGA/Documentos/UNLaR/TrabajoFinal/T-Rat/t-rat/svg/TRat.png"
   inkscape:export-xdpi="72.000778"
   inkscape:export-ydpi="72.000778"
   xmlns:inkscape="http://www.inkscape.org/namespaces/inkscape"
   xmlns:sodipodi="http://sodipodi.sourceforge.net/DTD/sodipodi-0.dtd"
   xmlns="http://www.w3.org/2000/svg"
   xmlns:svg="http://www.w3.org/2000/svg">
  <defs
     id="defs20" />
  <sodipodi:namedview
     id="namedview18"
     pagecolor="#505050"
     bordercolor="#eeeeee"
     borderopacity="1"
     inkscape:pageshadow="0"
     inkscape:pageopacity="0"
     inkscape:pagecheckerboard="0"
     inkscape:document-units="mm"
     showgrid="false"
     inkscape:zoom="0.3211549"
     inkscape:cx="924.78738"
     inkscape:cy="1008.859"
     inkscape:window-width="1920"
     inkscape:window-height="1024"
     inkscape:window-x="0"
     inkscape:window-y="0"
     inkscape:window-maximized="1"
     inkscape:current-layer="svg16" />
  <g
     id="g10">
    <rect
       transform="translate(49.137 75.478)"
       x="-49.137"
       y="215.36"
       width="247.68"
       height="257.02"
       fill="#b4b4b4"
       id="rect2" />
    <rect
       transform="translate(49.137 75.478)"
       x="-49.137"
       y="-75.478"
       width="247.68"
       height="257.02"
       fill="#151515"
       id="rect4" />
    <rect
       transform="translate(49.137 75.478)"
       x="232.35"
       y="215.36"
       width="247.68"
       height="257.02"
       fill="#888785"
       id="rect6" />
    <rect
       transform="translate(49.137 75.478)"
       x="232.35"
       y="-75.478"
       width="247.68"
       height="257.02"
       fill="#414444"
       id="rect8" />
  </g>
  <g
     transform="translate(49.137 75.478)"
     id="g14">
    <path
       id="path12"
       style="color:#000000;fill:#ffffff;stroke-width:3.77953;-inkscape-stroke:none"
       d="m 582.4043,575.74609 c -43.15467,0.0228 -74.18207,47.11337 -73.11914,101.15235 -27.84378,32.75338 -119.22461,46.6893 -162.85547,56.25 -70.02709,36.47244 -144.24334,87.39704 -210.33594,138.32617 -16.93531,13.04693 2.90174,54.11331 27.04687,62.24609 33.47528,50.21594 88.67171,71.9216 145.4629,79.2988 135.3411,0 237.0301,32.4436 305.32617,155.1309 20.96201,37.6554 29.32539,109.4394 -24.46485,173.748 -11.232,13.4268 -26.99105,18.7251 -44.64257,25.3575 -15.10035,-5.9146 -39.66767,-11.0355 -50.71485,5.5351 -5.27508,-0.6444 -8.28199,1.993 -11.78515,5.1778 -9.79011,-1.9227 -18.76921,2.0773 -23.03516,10 4.06639,-0.8128 5.01476,-0.8639 9.46289,-0.1778 -4.44813,2.1354 -13.90712,5.8077 -9.82031,10.8028 10.63105,-0.8894 21.65969,-4.149 31.875,-6.3379 -8.08555,6.3231 -17.74882,11.8082 -20.625,21.875 4.28825,-1.8392 8.91202,-1.9802 9.91015,2.6777 h 16.51758 c 9.87591,-9.7735 24.93181,-13.8702 38.125,-16.6973 l -8.30469,15.3575 c -7.15566,2.8542 -25.37813,20.3972 -7.32031,19.1074 l -20.44726,12.0547 c -10.02255,-0.2404 -31.68855,-0.4573 -30,13.4804 4.56793,-2.892 12.24627,-3.4931 15.53711,0.8946 -11.25506,7.5653 -1.16378,10.1408 11.69531,9.2851 -4.73658,3.4383 -2.95798,6.7888 -0.44531,9.5528 l 26.96289,-0.3575 19.91211,-15.8027 c 2.99754,-2.3792 4.74596,-3.8571 7.41015,-6.6074 h 0.0234 c 8.42419,2.4343 8.99934,4.13 19.17383,-1.7071 5.83899,-3.3498 -3.14119,8.3598 -5.45899,12.1446 -8.38261,13.6884 2.03206,25.9705 22.31641,10.8066 6.35932,-4.7539 6.04021,-9.8833 8.46289,-14.3359 2.32252,-4.2682 6.69395,-8.778 9.4668,-11.5508 4.33285,-4.3329 8.94294,-6.3477 14.39453,-8.7109 2.41549,-11.2722 11.89097,-10.479 19.0664,-1.8946 10.44284,-10.4965 16.44382,-25.1266 17.66797,-35.2871 59.93953,-46.2614 115.19593,-72.7077 177.77735,-102.7285 27.23527,-13.0647 57.09379,-28.2142 85.33593,-38.4023 56.60599,21.7708 117.34516,42.0656 178.49416,47.916 29.1969,3.8925 148.6411,-15.2492 154.1074,37.3203 0.3412,3.281 -1.3847,6.9734 -3.6839,7.7012 -106.677,33.7682 -165.6698,-15.1309 -222.8883,17.9043 -75.52122,34.2376 78.8041,-12.7039 9.8418,27.9355 -38.84223,32.4543 -11.4107,29.5245 15.9062,8.6094 60.0675,-31.5378 -9.6438,64.5977 50.3262,26.2168 64.5109,-25.6191 141.0269,-10.534 209.4727,-28.8633 33.471,-8.9633 45.2848,-50.9436 54.7734,-65.9316 96.4157,12.8503 178.0324,-17.5759 228.5723,-50 48.3855,3.456 89.3174,13.4316 133.2129,30 41.6125,16.0025 117.3344,37.4225 156.7851,81.0722 22.6534,25.0621 40.7953,55.6161 37.2422,94.2617 -3.8249,41.5824 -34.0684,69.545 -65.457,88.5957 -63.9837,38.8324 -177.4797,35 -221.7871,35 -35.709,0 -95.4813,-4.1454 -143.2129,-2.8574 -68.4964,1.8486 -137.9418,1.1005 -205.002,15.1778 -25.3342,5.3181 -82.5854,24.3748 -73.2129,25.8925 16.1764,2.6196 56.2469,-5.3479 68.7715,-7.8554 145.663,-29.1644 262.0834,10.8414 410.4941,7.1757 91.2416,-2.2563 178.5607,-32.401 242.3516,-92.3632 29.6863,-27.9043 35.2946,-96.5596 23.6113,-119.9258 -30.788,-61.5731 -51.9122,-69.7883 -84.9101,-97.5156 -33.4677,-28.1197 -86.4651,-54.3864 -112.2559,-67.7852 -22.9379,-11.9161 -43.9937,-19.842 -61.5605,-29.3672 -37.3229,-20.2356 -66.9266,-72.3323 -86.336,-125.9336 -13.4698,-37.1981 -18.3806,-75.651 -31.3984,-114.1152 -22.7603,-67.24537 -43.9475,-131.21052 -80.8164,-176.57619 -114.8069,-141.2538 -314.4306,-178.33445 -469.7578,-171.45117 -41.1062,1.82173 -82.60622,30.46724 -123.9278,42.14258 -71.95086,20.32856 -186.99967,39.25616 -253.28125,-4.13282 -9.56598,-0.85757 -50.27189,-18.78967 -44.44726,-27.02148 6.21203,-8.77984 23.55286,-37.22761 22.60351,-59.0918 -1.14897,-26.4616 -18.92133,-38.21694 -39.39843,-41.16406 -2.97886,-0.42874 -5.91014,-0.63629 -8.78711,-0.63477 z"
       transform="matrix(0.26458333,0,0,0.26458333,-49.137,-75.478)"
       sodipodi:nodetypes="scccccccccccccccccccccccccccccssssscccsccssccccsccccccssssccsccccsccscccssss" />
  </g>
</svg>
