<svg width="10.054mm" height="10.054mm" version="1.1" viewBox="0 0 10.054 10.054" xmlns="http://www.w3.org/2000/svg">
 <g transform="scale(.019105)">
  <path d="m279.95 280.19v246.07a263.67 263.67 0 0 0 246.3-246.07z" fill="#888785"/>
  <path d="m0.020154 280.19a263.67 263.67 0 0 0 246.13 246.06v-246.06z" fill="#b4b4b4"/>
  <path d="m246.15 0.010852a263.67 263.67 0 0 0-246.15 246.36h246.15z" fill="#151515"/>
  <path d="m279.95 0v246.38h246.32a263.67 263.67 0 0 0-246.32-246.38z" fill="#414444"/>
  <path d="m153.35 141.87c-10.689 0.3058-23.544 14.048-20.132 26.577-15.931 14.507-40.642 9.1169-57.142 22.778-11.816 12.485-47.734 19.332-40.695 39.927 11.515 13.066 26.139 25.305 44.74 26.227 28.186-0.96199 57.76 8.6439 75.469 32.532 13.767 18.57 12.06 49.607-9.571 59.904-10.528-3.7444-39.632 11.91-17.69 7.9039-18 15.71 22.123-5.0638 7.6528 7.2982 3.393 5.4722-12.739 7.667-14.951 9.6206-2.0115 1.7763 2.534 1.1405 6.5293 0.57721 1.0658-0.15031-3.2976 3.6293-2.173 3.8416 1.3977 0.26392 5.1749-2.6415 6.4895-2.2877 1.7692 0.4762-5.0226 5.4506-3.1006 5.2503 2.617-0.27278 12.112-5.6971 15.144-7.1499h6e-3c11.324-5.4262-2.5962 5.8847 6.0342 7.3758 6.795-7.3986 14.237-12.337 20.348-16.112 10.586-17.053 35.107-21.447 51.192-33.134 18.825-13.678 35.907-1.4071 54.973 2.0118 16.539 6.5691 42.934-6.559 52.873 11.699-15.86 12.961-42.343-3.2722-60.572 7.0978-19.883 9.0135 20.747-3.3424 2.5931 7.3546-10.226 8.544-3.0064 7.7726 4.1863 2.2645 15.814-8.3029-2.5372 17.007 13.25 6.9024 16.984-6.7447 37.101-2.9121 55.148-7.599 17.897-0.97801 10.294-21.807 29.399-16.944 23.182 5.902 41.823-20.403 64.637-11.338 22.886 7.786 50.967 12.651 64.66 34.829 0.37222 0.61384 0.71528 1.2264 1.033 1.8381a263.67 263.67 0 0 0 4.5925-10.875c-16.063-19.785-42.281-29.484-64.162-41.563-22.375-19.614-24.078-51.009-33.207-77.428-12.656-36.625-45.725-62.132-82.199-70.157-26.757-5.8874-56.022-9.3188-82.392 2.5492-22.741 10.234-50.304 10.5-75.221 1.8846-16.344-5.651-8.0427-12.498-5.7795-22.785-2.0393-7.9666-6.7426-11.022-11.963-10.873zm325.68 272.63c-4.2354 1.4809-8.5856 2.3556-12.758 2.4918-45.632 5.6157-92.784-5.1429-137.63 7.7551-14.285 3.1519-7.7024 5.8151 2.4686 3.2241 46.168-12.254 94.248 8.7616 140.07-2.851a263.67 263.67 0 0 0 7.8507-10.62z" fill="#fff"/>
 </g>
</svg>
