<?xml version="1.0" encoding="UTF-8" standalone="no"?>
<svg
   xmlns:dc="http://purl.org/dc/elements/1.1/"
   xmlns:cc="http://creativecommons.org/ns#"
   xmlns:rdf="http://www.w3.org/1999/02/22-rdf-syntax-ns#"
   xmlns:svg="http://www.w3.org/2000/svg"
   xmlns="http://www.w3.org/2000/svg"
   xmlns:sodipodi="http://sodipodi.sourceforge.net/DTD/sodipodi-0.dtd"
   xmlns:inkscape="http://www.inkscape.org/namespaces/inkscape"
   width="119.93448mm"
   height="119.93453mm"
   viewBox="0 0 119.93448 119.93453"
   version="1.1"
   id="svg8"
   inkscape:version="1.0.2 (e86c870879, 2021-01-15, custom)"
   sodipodi:docname="Missing_avatar.svg">
  <defs
     id="defs2" />
  <sodipodi:namedview
     id="base"
     pagecolor="#ffffff"
     bordercolor="#666666"
     borderopacity="1.0"
     inkscape:pageopacity="0.0"
     inkscape:pageshadow="2"
     inkscape:zoom="1.1894531"
     inkscape:cx="289.54126"
     inkscape:cy="257.59829"
     inkscape:document-units="mm"
     inkscape:current-layer="layer1"
     showgrid="false"
     fit-margin-top="0"
     fit-margin-left="0"
     fit-margin-right="0"
     fit-margin-bottom="0"
     inkscape:window-width="1920"
     inkscape:window-height="1024"
     inkscape:window-x="0"
     inkscape:window-y="0"
     inkscape:window-maximized="1"
     inkscape:document-rotation="0" />
  <metadata
     id="metadata5">
    <rdf:RDF>
      <cc:Work
         rdf:about="">
        <dc:format>image/svg+xml</dc:format>
        <dc:type
           rdf:resource="http://purl.org/dc/dcmitype/StillImage" />
        <dc:title />
      </cc:Work>
    </rdf:RDF>
  </metadata>
  <g
     inkscape:label="Layer 1"
     inkscape:groupmode="layer"
     id="layer1"
     transform="translate(-43.236794,-85.352875)">
    <path
       sodipodi:open="true"
       sodipodi:end="6.2663603"
       sodipodi:start="0"
       sodipodi:ry="59.967209"
       sodipodi:rx="59.967239"
       sodipodi:cy="145.32008"
       sodipodi:cx="103.20403"
       sodipodi:type="arc"
       id="path4498"
       style="opacity:0.99;fill:#adadad;fill-opacity:1;stroke:none;stroke-width:0.065476;stroke-linecap:round;stroke-linejoin:miter;stroke-miterlimit:4;stroke-dasharray:none;stroke-dashoffset:0;stroke-opacity:1"
       sodipodi:arc-type="arc"
       d="m 163.17127,145.32008 a 59.967239,59.967209 0 0 1 -59.715,59.96668 59.967239,59.967209 0 0 1 -60.217355,-59.46221 59.967239,59.967209 0 0 1 59.208425,-60.466901 59.967239,59.967209 0 0 1 60.71544,58.953531" />
    <circle
       style="fill:#c8c8c8;fill-opacity:1;stroke:none;stroke-width:0.4;stroke-linecap:round;stroke-linejoin:round"
       id="path836"
       cx="103.21382"
       cy="131.13379"
       r="25.433729" />
    <path
       id="path836-3"
       style="fill:#c8c8c8;fill-opacity:1;stroke:none;stroke-width:2.16346;stroke-linecap:round;stroke-linejoin:round"
       d="m 226.55664,247.74609 a 137.56224,137.56224 0 0 0 -137.470702,137.5625 137.56224,137.56224 0 0 0 1.947265,23.06055 226.64783,226.64772 0 0 0 136.568357,45.04883 226.64783,226.64772 0 0 0 134.66016,-45.04883 137.56224,137.56224 0 0 0 1.94922,-23.06055 137.56224,137.56224 0 0 0 -137.5625,-137.5625 137.56224,137.56224 0 0 0 -0.0918,0 z"
       transform="matrix(0.26458333,0,0,0.26458333,43.236794,85.320039)" />
    <path
       id="path4500"
       d="m 102.85734,103.89501 a 27.465612,27.465599 0 0 0 -27.117722,27.69443 27.465612,27.465599 0 0 0 11.047389,21.75888 37.469016,37.468995 0 0 0 -21.050911,33.94522 37.469016,37.468995 0 0 0 0.438732,5.11648 59.967243,59.967208 0 0 0 2.950726,2.22312 34.971079,34.971058 0 0 1 -0.891421,-7.36079 34.971079,34.971058 0 0 1 20.986834,-32.30656 27.465612,27.465599 0 0 0 14.098363,3.85765 27.465612,27.465599 0 0 0 13.87202,-3.86178 34.971079,34.971058 0 0 1 20.97857,31.42857 l 0.005,0.58808 a 34.971079,34.971058 0 0 1 -0.85783,7.57783 59.967243,59.967208 0 0 0 2.92179,-2.08928 37.469016,37.468995 0 0 0 0.43408,-5.48855 l -0.005,-0.63045 a 37.469016,37.468995 0 0 0 -21.01112,-33.03158 27.465612,27.465599 0 0 1 -0.0687,0.0465 27.465612,27.465599 0 0 0 11.0815,-22.00434 l -0.004,-0.4625 A 27.465612,27.465599 0 0 0 102.857,103.895 Z m 0.0315,2.49649 a 24.968738,24.968726 0 0 1 25.28011,24.54682 l 0.004,0.42013 A 24.968738,24.968726 0 0 1 103.309,156.32695 24.968738,24.968726 0 0 1 78.236108,131.56826 24.968738,24.968726 0 0 1 102.88887,106.3915 Z"
       style="opacity:0.99;fill:#e6e6e6;fill-opacity:1;stroke:none;stroke-width:0.0687512;stroke-linecap:round;stroke-linejoin:miter;stroke-miterlimit:4;stroke-dasharray:none;stroke-dashoffset:0;stroke-opacity:1"
       inkscape:connector-curvature="0" />
  </g>
</svg>
