<svg width="344.62" height="344.62" version="1.1" viewBox="0 0 344.62 344.62" xml:space="preserve" xmlns="http://www.w3.org/2000/svg">
<rect width="344.62" height="344.62" fill="#8bc050"/><g transform="translate(12.831 25.629)">
	
		<path d="m303.67 253.51c-11.151-37.754-67.121-33.566-91.279-44.408-24.157-10.842-20.386-47.219-23.449-53.548h-58.933c-3.058 6.329 0.714 42.711-23.449 53.548-24.157 10.842-80.133 6.655-91.279 44.408-6.149 20.824-5.857 27.193-7.554 50.26 0 0 76.8 15.187 150.01 15.187s153.49-15.187 153.49-15.187c-1.703-23.073-1.41-29.435-7.559-50.26z" fill="#636358"/>
		<path d="m303.67 253.51c-11.151-37.754-67.121-33.566-91.279-44.408-24.157-10.842-20.386-47.219-23.449-53.548h-31.206s-0.719 51.024 23.438 61.866 80.133 6.655 91.279 44.408c5.857 19.83 5.868 26.552 7.324 47.073 19.234-2.816 31.442-5.126 31.442-5.126-1.693-23.078-1.4-29.44-7.549-50.265z" fill="#515147"/>
		<path d="m186.29 318.26 14.282-100.93h-82.196l14.304 101.08c8.324 0.354 16.716 0.551 25.062 0.551 9.46-1e-3 19.043-0.254 28.548-0.698z" fill="#eae5dc"/>
		<path d="m190.09 226.38c9.741-3.805 17.756-9.409 23.168-16.21l0.416-0.517c-0.433-0.18-0.86-0.36-1.276-0.545-24.157-10.842-20.386-47.219-23.449-53.548h-58.938c-3.058 6.329 0.714 42.711-23.449 53.548-0.416 0.185-0.843 0.371-1.276 0.545l0.416 0.517c5.413 6.795 13.428 12.399 23.168 16.21 9.229 3.603 19.813 5.508 30.61 5.508 10.798 0 21.381-1.905 30.61-5.508z" fill="#393c3d"/>
		<path d="m212.39 209.1c-4.345-1.95-7.779-4.727-10.516-8.004-5.064 6.357-13.827 11.404-24.573 14.096 1.214 0.86 2.507 1.607 3.878 2.22 4.71 2.113 10.634 3.659 17.199 5.053 6.031-3.378 11.089-7.548 14.872-12.304l0.416-0.517c-0.433-0.173-0.86-0.359-1.276-0.544z" fill="#2f3233"/>
		<path d="m201.88 201.1c-12.5-14.951-10.421-40.356-12.927-45.549h-58.939c-2.512 5.193-0.427 30.599-12.927 45.549 7.655 9.611 23.764 16.232 42.396 16.232s34.741-6.621 42.397-16.232z" fill="#dbb491"/>
		<path d="m177.3 215.2c10.747-2.692 19.509-7.74 24.573-14.096-12.5-14.951-10.421-40.356-12.927-45.549h-31.206c1e-3 5e-3 -0.64 45.392 19.56 59.645z" fill="#cca483"/>
		<path d="m122.08 193.15c9.78 7.959 21.24 15.85 37.338 18.132 16.137-2.288 27.569-10.342 37.36-18.334-8.144-14.973-5.626-32.83-7.83-37.4h-58.938c-2.214 4.576 0.253 22.623-7.93 37.602z" fill="#c69e7f"/>
		<path d="m233.29 250.72-15.333-5.559 13.776-3.794-13.13-29.969-40.749 107.21c4.778-0.163 9.549-0.377 14.293-0.635z" fill="#515147"/>
		<path d="m86.188 241.37 13.776 3.794-15.333 5.559 41.216 67.369c4.716 0.247 9.471 0.444 14.237 0.59l-40.845-106.95z" fill="#515147"/>
		<path d="m228.98 251.56-14.833-6.239 13.461-4.783-9.004-29.137-16.907-13.147-32.111 120.58c6.97-0.146 13.962-0.41 20.903-0.776z" fill="#72726a"/>
		<path d="m201.69 198.25-6.278 23.567c8.538 1.945 18.385 3.507 28.171 5.711l-4.985-16.131z" fill="#636358"/>
		<path d="m99.233 211.73-8.926 28.806 13.461 4.783-14.833 6.239 38.563 66.621c6.902 0.343 13.877 0.585 20.847 0.703l-32.127-120.62z" fill="#72726a"/>
		
			<ellipse transform="matrix(-.177 .9842 -.9842 -.177 385.65 -85.376)" cx="228.52" cy="118.55" rx="21.386" ry="11.629" fill="#cca483"/>
		
			<ellipse transform="matrix(-.9842 .177 -.177 -.9842 200.09 219.27)" cx="90.263" cy="118.56" rx="11.629" ry="21.386" fill="#dbb491"/>
		<path d="m223.64 47.359h-128.41s-35.989 146.61 64.187 160.81c100.22-14.192 64.222-160.81 64.222-160.81z" fill="#dbb491"/>
		<path d="m159.42 208.16c100.22-14.192 64.221-160.81 64.221-160.81h-15.024c4.114 61.242 9.808 93.774-13.815 129.24-18.716 28.104-35.382 31.566-35.382 31.566z" fill="#cca483"/>
		<path d="m235.79 53.3c-5.722-22.769-34.595-48.725-76.305-48.725s-70.584 25.956-76.306 48.725l7.683 63.26c0.056-6.93 0.27-20.139 0.95-28.643 0.956-11.888 6.75-34.567 26.237-34.275 7.262 0.112 24.275 11.888 41.43 11.888 16.536 0 33.212-11.764 41.43-11.888 19.487-0.292 25.282 22.387 26.237 34.275 0.686 8.515 0.916 21.797 0.972 28.721z" fill="#cca483"/>
		<path d="m228.12 116.63c18.593-20.459 7.667-67.908 7.667-67.908-5.722-22.769-34.595-48.725-76.306-48.725s-70.583 25.956-76.311 48.725c0 0-10.932 47.483 7.683 67.931 0 0-6e-3 -21.431 0.956-33.313s6.75-34.567 26.237-34.275c7.262 0.112 24.275 11.888 41.43 11.888 16.536 0 33.212-11.764 41.43-11.888 19.487-0.292 25.282 22.387 26.237 34.275s0.955 33.313 0.955 33.313c0.011-0.011 0.017-0.017 0.022-0.023z" fill="#3b3b3b"/>
	
</g>















</svg>
